<?xml version="1.0" standalone="no"?>
<!DOCTYPE svg PUBLIC "-//W3C//DTD SVG 20010904//EN"
 "http://www.w3.org/TR/2001/REC-SVG-20010904/DTD/svg10.dtd">
<svg version="1.0" xmlns="http://www.w3.org/2000/svg"
 width="700.000000pt" height="700.000000pt" viewBox="0 0 700.000000 700.000000"
 preserveAspectRatio="xMidYMid meet">
<metadata>
Created by potrace 1.14, written by Peter Selinger 2001-2017
</metadata>
<g transform="translate(0.000000,700.000000) scale(0.100000,-0.100000)"
fill="#000000" stroke="none">
<path d="M2241 6400 c-66 -24 -97 -46 -137 -98 -58 -77 -63 -109 -62 -471 l0
-324 -34 -26 c-148 -116 -317 -277 -408 -389 -19 -24 -45 -56 -58 -70 -88
-102 -299 -471 -350 -612 -66 -182 -120 -380 -137 -495 -3 -23 -8 -52 -10 -65
-20 -101 -27 -453 -12 -600 9 -90 33 -233 53 -315 8 -33 17 -69 19 -80 9 -40
74 -234 93 -277 11 -23 32 -72 48 -108 69 -157 200 -371 322 -525 77 -96 279
-297 385 -382 l88 -70 2 -344 c2 -336 3 -345 25 -394 28 -61 99 -128 161 -152
43 -17 121 -18 1276 -18 l1230 0 57 28 c69 34 124 97 148 168 15 43 17 98 18
380 0 182 2 332 4 334 1 2 32 26 68 55 288 229 519 511 679 830 127 254 192
450 240 735 33 192 36 545 6 735 -8 45 -24 138 -30 169 -45 233 -178 564 -308
770 -23 36 -46 73 -52 82 -107 179 -347 434 -573 610 l-33 25 -3 345 c-2 328
-3 346 -24 391 -30 66 -76 113 -141 145 l-56 28 -1223 1 c-1123 0 -1227 -1
-1271 -16z"/>
</g>
</svg>
