<?xml version="1.0" encoding="utf-8"?><!-- Uploaded to: SVG Repo, www.svgrepo.com, Generator: SVG Repo Mixer Tools -->
<svg fill="#000000" width="800px" height="800px" viewBox="0 0 24 24" id="watch-circle-7-o-clock" data-name="Flat Color" xmlns="http://www.w3.org/2000/svg" class="icon flat-color"><path id="secondary" d="M17,3V5.66a1,1,0,0,1-1,1,1,1,0,0,1-.53-.15,6.58,6.58,0,0,0-6.94,0A1,1,0,0,1,7,5.66V3A1,1,0,0,1,8,2h8A1,1,0,0,1,17,3Zm-.52,14.46a1,1,0,0,0-1,0,6.58,6.58,0,0,1-6.94,0A1,1,0,0,0,7,18.34V21a1,1,0,0,0,1,1h8a1,1,0,0,0,1-1V18.34A1,1,0,0,0,16.48,17.46Z" style="fill: rgb(44, 169, 188);"></path><circle id="primary" cx="12" cy="12" r="8.5" style="fill: rgb(0, 0, 0);"></circle><path id="secondary-2" data-name="secondary" d="M12,8a1,1,0,0,0-1,1v3.12L9.86,13.41a1,1,0,0,0,1.49,1.33l1.4-1.57A1,1,0,0,0,13,12.5V9A1,1,0,0,0,12,8Z" style="fill: rgb(44, 169, 188);"></path></svg>