<?xml version="1.0" encoding="utf-8"?><!-- Uploaded to: SVG Repo, www.svgrepo.com, Generator: SVG Repo Mixer Tools -->
<svg fill="#000000" width="800px" height="800px" viewBox="0 0 24 24" id="watch-circle-7-o-clock" data-name="Flat Line" xmlns="http://www.w3.org/2000/svg" class="icon flat-line"><circle id="secondary" cx="12" cy="12" r="7.5" style="fill: rgb(44, 169, 188); stroke-width: 2;"></circle><polyline id="primary" points="10.6 14.07 12 12.5 12 9" style="fill: none; stroke: rgb(0, 0, 0); stroke-linecap: round; stroke-linejoin: round; stroke-width: 2;"></polyline><path id="primary-2" data-name="primary" d="M12,4.5a7.49,7.49,0,0,1,4,1.16V3H8V5.66A7.49,7.49,0,0,1,12,4.5Zm0,15a7.49,7.49,0,0,1-4-1.16V21h8V18.34A7.49,7.49,0,0,1,12,19.5ZM19.5,12A7.5,7.5,0,1,1,12,4.5,7.5,7.5,0,0,1,19.5,12Z" style="fill: none; stroke: rgb(0, 0, 0); stroke-linecap: round; stroke-linejoin: round; stroke-width: 2;"></path></svg>